<svg xmlns="http://www.w3.org/2000/svg" viewBox="0 0 48 48" width="48" height="48">
  <defs>
    <linearGradient id="geminiGrad" x1="0%" y1="0%" x2="100%" y2="100%">
      <stop offset="0%" stop-color="#1e88e5" />
      <stop offset="25%" stop-color="#00acc1" />
      <stop offset="50%" stop-color="#43a047" />
      <stop offset="75%" stop-color="#fdd835" />
      <stop offset="100%" stop-color="#f4511e" />
    </linearGradient>
    <filter id="glow" x="-10%" y="-10%" width="120%" height="120%">
      <feDropShadow dx="0" dy="1" stdDeviation="1" flood-opacity="0.15"/>
    </filter>
  </defs>
  <!-- Beautiful flowing infinity loop representing the intelligent automation of LeadFlow -->
  <g filter="url(#glow)">
    <path d="M 12 24 C 12 16.5, 17.5 11, 24 11 C 31.5 11, 36 17, 36 24 C 36 31.5, 30.5 37, 24 37 C 16.5 37, 12 30, 12 24 Z" 
          fill="none" 
          stroke="url(#geminiGrad)" 
          stroke-width="5.5" 
          stroke-linecap="round" 
          stroke-linejoin="round" />
    <path d="M 15 19 C 18 15, 22 13, 24 13 C 28.5 13, 33 18, 33 24 C 33 30, 29 35, 24 35 C 19.5 35, 15 30, 15 24" 
          fill="none" 
          stroke="#ffffff" 
          stroke-width="1.5" 
          stroke-linecap="round" 
          stroke-dasharray="1, 3" 
          opacity="0.6" />
  </g>
</svg>
